<svg width="152" height="40" viewBox="0 0 152 40" fill="none" xmlns="http://www.w3.org/2000/svg">
<path d="M7.2 14.4C11.2 14.4 14.4 11.2 14.4 7.2C14.4 3.2 11.2 0 7.2 0C3.2 0 0 3.2 0 7.2C0 11.1 3.2 14.4 7.2 14.4Z" transform="translate(0 25)" fill="#B42192"/>
<path d="M11.0487 0C9.14868 0 7.34868 0.5 5.54868 1.5C0.248678 4.6 -1.55132 11.4 1.44868 16.7C5.94868 24.6 13.2487 22.8 14.9487 25.3C15.2487 25.8 15.4487 26.4 15.4487 27.1C15.4487 29.3 14.3487 32.5 16.3487 36C18.5487 39.8 23.3487 41 27.0487 38.9C30.8487 36.7 32.1487 31.9 29.9487 28.2C27.8487 24.6 24.6487 24 22.6487 22.9C22.0487 22.5 21.5487 22.1 21.3487 21.5C20.0487 18.8 25.0487 13.5 20.7487 5.7C20.8487 5.7 20.7487 5.6 20.7487 5.6C18.6487 2 14.9487 0 11.1487 0H11.0487Z" transform="translate(8.25146)" fill="url(#paint0_linear)"/>
<path d="M101.3 17.8H103.8V10.7C103.8 9 103.4 7.6 102.6 6.7C101.8 5.8 100.7 5.3 99.2 5.3C98.7 5.3 98.2 5.4 97.7 5.5C97.2 5.6 96.8 5.8 96.5 6C96.2 6.2 95.9 6.4 95.7 6.6C95.4 6.8 95.3 7 95.2 7.1C95.1 7.2 95.1 7.3 95 7.3L94.9 7.1C94.8 7 94.7 6.8 94.5 6.6C94.3 6.4 94.1 6.2 93.8 6C93.5 5.8 93.2 5.6 92.7 5.5C92.3 5.4 91.8 5.3 91.3 5.3C90.7 5.3 90.1 5.4 89.5 5.7C88.9 6 88.6 6.2 88.4 6.4C88.2 6.6 88.1 6.7 88 6.8V5.5H85.5V17.7H88V11.1C88 10 88.3 9.1 88.8 8.5C89.3 7.9 90 7.6 90.8 7.6C91.6 7.6 92.2 7.9 92.7 8.4C93.2 8.9 93.4 9.7 93.4 10.7V17.8H95.9V11.2C95.9 10.1 96.2 9.2 96.7 8.6C97.2 8 97.9 7.7 98.7 7.7C99.5 7.7 100.1 8 100.6 8.5C101.1 9 101.3 9.8 101.3 10.8V17.8ZM76.3 15.8C75.6 15.8 75.1 15.6 74.7 15.3C74.3 15 74.1 14.6 74.1 14.2C74.1 13.8 74.2 13.4 74.5 13.1C74.8 12.8 75.2 12.6 75.6 12.5L79.5 11.9V12.1C79.5 13.2 79.2 14.1 78.6 14.7C78.2 15.5 77.4 15.8 76.3 15.8ZM82.2 17.8V9.9C82.2 8.6 81.7 7.5 80.8 6.6C79.8 5.7 78.6 5.3 77.1 5.3C76.5 5.3 75.9 5.4 75.4 5.5C74.8 5.7 74.4 5.8 74.1 6.1C73.8 6.3 73.4 6.5 73.1 6.8C72.8 7.1 72.6 7.2 72.5 7.3C72.4 7.4 72.3 7.5 72.3 7.6L74 9.3L74.3 8.9C74.5 8.6 74.9 8.4 75.4 8.1C75.9 7.8 76.5 7.7 77.2 7.7C77.9 7.7 78.6 7.9 79 8.4C79.5 8.8 79.7 9.4 79.7 10L75.2 10.8C74.1 11 73.2 11.4 72.6 12.1C72 12.8 71.7 13.6 71.7 14.6C71.7 15.5 72.1 16.4 72.9 17.1C73.7 17.8 74.7 18.2 76 18.2C76.4 18.2 76.8 18.1 77.3 18C77.7 17.9 78.1 17.8 78.3 17.6C78.6 17.5 78.8 17.3 79.1 17.1C79.3 16.9 79.5 16.8 79.6 16.7C79.7 16.6 79.7 16.6 79.8 16.5V17.8H82.2ZM63.9 7.5C64.8 7.5 65.6 7.8 66.2 8.3C66.8 8.8 67.2 9.5 67.4 10.4H60.3C60.5 9.5 60.9 8.8 61.6 8.3C62.3 7.8 63 7.5 63.9 7.5ZM69.8 12.6L69.9 11.3C69.9 9.6 69.3 8.2 68.2 7C67.1 5.9 65.6 5.3 63.9 5.3C62.2 5.3 60.7 5.9 59.5 7.1C58.3 8.3 57.7 9.8 57.7 11.5C57.7 13.3 58.3 14.8 59.6 16.1C60.9 17.4 62.3 18 64.1 18C64.7 18 65.4 17.9 66 17.7C66.6 17.5 67.1 17.3 67.5 17.1C67.9 16.9 68.2 16.6 68.6 16.3C68.9 16 69.2 15.8 69.3 15.7C69.4 15.6 69.5 15.5 69.5 15.4L67.8 13.7L67.4 14.2C67.1 14.5 66.7 14.8 66.1 15.1C65.5 15.4 64.8 15.6 64.1 15.6C63.1 15.6 62.3 15.3 61.5 14.7C60.8 14.1 60.4 13.3 60.2 12.5H69.8V12.6ZM56.8 7.8V5.4H56.2C55.8 5.4 55.4 5.5 54.9 5.6C54.5 5.7 54.1 5.8 53.9 6C53.6 6.1 53.4 6.3 53.1 6.5C52.9 6.7 52.7 6.8 52.6 6.9L52.4 7.1V5.8H49.9V18H52.4V11.4C52.4 10.3 52.7 9.4 53.3 8.8C53.9 8.2 54.6 7.9 55.6 7.9C56.1 7.7 56.5 7.7 56.8 7.8ZM42.3 4.1C42.3 5.1 41.9 5.6 41 5.6H39.8V7.9H42.1V14.3C42.1 16.8 43.3 18.1 45.7 18.1C46.4 18.1 47 18 47.5 17.9V15.5H47.3C47.2 15.5 47 15.6 46.8 15.6C46.6 15.6 46.4 15.7 46.2 15.7C45.8 15.7 45.4 15.6 45.1 15.3C44.8 15 44.7 14.6 44.7 14.2V7.9H47.2V5.6H44.7V1.5H42.4V4.1H42.3ZM37.8 7L37.6 6.8C37.5 6.7 37.3 6.6 37.1 6.4C36.9 6.2 36.6 6.1 36.3 5.9C36 5.7 35.6 5.6 35.2 5.5C34.7 5.4 34.3 5.3 33.8 5.3C32.6 5.3 31.5 5.7 30.7 6.4C29.9 7.1 29.5 7.9 29.5 8.9C29.5 9.6 29.7 10.2 30 10.6C30.3 11.1 30.7 11.4 31.2 11.7C31.7 11.9 32.2 12.1 32.7 12.3C33.2 12.5 33.7 12.6 34.2 12.8C34.7 12.9 35 13.1 35.4 13.3C35.7 13.5 35.9 13.8 35.9 14.2C35.9 14.7 35.7 15 35.4 15.3C35.1 15.6 34.6 15.7 33.9 15.7C33.3 15.7 32.8 15.6 32.3 15.3C31.8 15 31.4 14.8 31.3 14.6C31.1 14.4 31 14.3 30.9 14.2L29.2 15.9L29.4 16.1C29.5 16.2 29.7 16.4 30 16.6C30.3 16.8 30.6 17 30.9 17.2C31.2 17.4 31.7 17.6 32.2 17.7C32.7 17.8 33.3 17.9 33.9 17.9C35.3 17.9 36.4 17.5 37.2 16.8C38 16.1 38.5 15.2 38.5 14.1C38.5 13.4 38.3 12.8 38 12.4C37.7 11.9 37.3 11.6 36.8 11.3C36.3 11.1 35.8 10.9 35.3 10.7C34.8 10.5 34.3 10.4 33.8 10.2C33.3 10.1 33 9.9 32.6 9.7C32.3 9.5 32.1 9.2 32.1 8.8C32.1 8.5 32.3 8.2 32.6 7.9C32.9 7.6 33.4 7.5 33.9 7.5C34.3 7.5 34.7 7.6 35.1 7.8C35.5 8 35.8 8.1 35.9 8.3C36 8.4 36.1 8.5 36.2 8.6L37.8 7ZM21.5 7.5C22.4 7.5 23.2 7.8 23.8 8.3C24.4 8.8 24.8 9.5 25 10.4H17.9C18.1 9.5 18.5 8.8 19.2 8.3C19.9 7.8 20.6 7.5 21.5 7.5ZM27.3 12.6L27.4 11.3C27.4 9.6 26.8 8.2 25.7 7C24.6 5.9 23.1 5.3 21.4 5.3C19.7 5.3 18.2 5.9 17 7.1C15.8 8.3 15.2 9.8 15.2 11.5C15.2 13.3 15.8 14.8 17.1 16.1C18.4 17.4 19.8 18 21.6 18C22.2 18 22.9 17.9 23.5 17.7C24.1 17.5 24.6 17.3 25 17.1C25.4 16.9 25.7 16.6 26.1 16.3C26.4 16 26.7 15.8 26.8 15.7C26.9 15.6 27 15.5 27 15.4L25.3 13.7L24.9 14.2C24.6 14.5 24.2 14.8 23.6 15.1C23 15.4 22.3 15.6 21.6 15.6C20.6 15.6 19.8 15.3 19 14.7C18.3 14.1 17.9 13.3 17.7 12.5H27.3V12.6ZM6.3 15.8C5.3 15.8 4.5 15.4 3.7 14.6C3 13.8 2.6 12.8 2.6 11.7C2.6 10.6 3 9.6 3.7 8.8C4.4 8 5.3 7.6 6.3 7.6C7.3 7.6 8.1 8 8.9 8.8C9.6 9.6 10 10.6 10 11.7C10 12.8 9.6 13.8 8.9 14.6C8.1 15.4 7.2 15.8 6.3 15.8ZM6 5.4C4.4 5.4 3 6 1.8 7.3C0.6 8.5 7.62939e-07 10 7.62939e-07 11.8C7.62939e-07 13.6 0.6 15.1 1.8 16.3C3 17.5 4.4 18.2 6 18.2C6.7 18.2 7.4 18 8.1 17.7C8.8 17.4 9.2 17.2 9.4 17C9.6 16.8 9.8 16.7 9.9 16.5V17.9H12.4V0H9.9V7L9.8 6.8C9.7 6.7 9.5 6.6 9.3 6.4C9.1 6.2 8.8 6.1 8.5 5.9C8.2 5.7 7.8 5.6 7.4 5.5C6.9 5.4 6.5 5.4 6 5.4Z" transform="translate(48.2002 7.5)" fill="white"/>
<defs>
<linearGradient id="paint0_linear" x2="1" gradientUnits="userSpaceOnUse" gradientTransform="matrix(18 30 -23.3075 13.9845 19.4024 0.507761)">
<stop offset="0.0580892" stop-color="#FFC100"/>
<stop offset="1" stop-color="#F05A00"/>
</linearGradient>
</defs>
</svg>
